<?xml version="1.0" encoding="utf-8"?>
<!-- Generator: Adobe Illustrator 16.0.4, SVG Export Plug-In . SVG Version: 6.00 Build 0)  -->
<!DOCTYPE svg PUBLIC "-//W3C//DTD SVG 1.1//EN" "http://www.w3.org/Graphics/SVG/1.1/DTD/svg11.dtd">
<svg version="1.1" id="svg2" xmlns:svg="http://www.w3.org/2000/svg"
	 xmlns="http://www.w3.org/2000/svg" xmlns:xlink="http://www.w3.org/1999/xlink" x="0px" y="0px" width="70px" height="200px"
	 viewBox="0 0 70 200" enable-background="new 0 0 70 200" xml:space="preserve">
<g id="layer1" transform="translate(0,-852.362)">
	<g id="g2850">
		<path id="path2847" d="M39.04,964.001c-2.589,0.846-4.729,2.271-6.419,4.279c-1.69,2.007-2.721,4.2-3.09,6.577
			s-0.065,4.728,0.911,7.052c0.979,2.325,2.812,4.2,5.507,5.627c0.634,0,1.03,0.264,1.188,0.792s-0.08,0.792-0.713,0.792
			c-2.588-0.527-4.86-1.611-6.815-3.248c-3.646-3.012-5.652-6.894-6.022-11.648c-0.211-2.377,0.014-4.676,0.674-6.895
			s1.572-4.253,2.734-6.102c1.426-1.954,3.117-3.646,5.071-5.071c0.104-0.106,0.409-0.343,0.911-0.713s0.99-0.713,1.466-1.03
			c0.476-0.316,1.188-0.818,2.139-1.506l-2.932-14.105c-2.589,2.166-5.151,4.556-7.687,7.171c-2.537,2.615-4.834,5.376-6.895,8.282
			c-2.061,2.905-3.711,5.982-4.953,9.231c-1.241,3.249-1.861,6.669-1.861,10.262c0,3.328,0.699,6.458,2.1,9.39
			c1.4,2.934,3.262,5.481,5.586,7.646c2.324,2.166,5.005,3.87,8.043,5.112c3.038,1.241,6.115,1.862,9.232,1.862
			c0.104,0,0.594-0.055,1.465-0.16c0.873-0.104,1.797-0.236,2.772-0.396c0.979-0.156,1.876-0.33,2.695-0.515
			c0.817-0.187,1.229-0.384,1.229-0.595l-0.478-2.219C42.843,983.468,40.888,973.51,39.04,964.001z M41.813,963.684l6.498,31.459
			c3.75-1.428,6.285-3.87,7.605-7.33c1.321-3.461,1.624-6.973,0.911-10.539s-2.39-6.723-5.03-9.471
			C49.156,965.057,45.828,963.684,41.813,963.684z M33.492,921.29c1.638-0.846,3.157-2.113,4.558-3.804
			c1.398-1.69,2.692-3.5,3.883-5.428c1.188-1.928,2.219-3.896,3.09-5.904c0.871-2.007,1.572-3.829,2.1-5.467
			c0.581-1.743,0.977-3.698,1.189-5.864c0.211-2.166-0.133-3.988-1.03-5.468c-0.634-1.32-1.466-2.086-2.496-2.298
			c-1.03-0.211-2.062-0.132-3.091,0.238c-1.03,0.37-2.008,0.964-2.932,1.783c-0.924,0.819-1.6,1.545-2.021,2.179
			c-1.163,2.06-2.18,4.358-3.051,6.894c-0.872,2.536-1.467,5.164-1.783,7.885c-0.316,2.72-0.357,5.335-0.119,7.845
			C32.027,916.39,32.595,918.86,33.492,921.29z M31.116,923.746c-0.898-3.486-1.689-6.907-2.377-10.262
			c-0.688-3.354-1.03-6.801-1.03-10.341c0-2.588,0.185-5.428,0.556-8.518c0.369-3.09,1.043-6.102,2.021-9.034
			s2.324-5.56,4.041-7.884c1.717-2.325,4.001-4.015,6.854-5.072c0.265-0.105,0.527-0.158,0.793-0.158
			c0.369,0,0.806,0.211,1.308,0.634c0.502,0.422,1.03,1.043,1.585,1.862s1.043,1.664,1.466,2.536
			c0.423,0.871,0.739,1.466,0.951,1.783c1.426,2.694,2.47,5.56,3.13,8.597c0.66,3.038,1.043,6.062,1.148,9.073
			c0.211,4.544-0.039,9.034-0.752,13.472c-0.713,4.437-2.153,8.769-4.319,12.995c-0.739,1.268-1.492,2.549-2.259,3.843
			c-0.766,1.295-1.676,2.549-2.733,3.764c-0.211,0.212-0.594,0.595-1.149,1.149c-0.555,0.555-1.123,1.123-1.703,1.704
			c-0.581,0.581-1.096,1.123-1.545,1.624c-0.448,0.502-0.674,0.806-0.674,0.912l3.248,15.848c0.021,0.104,1.625,0,1.625,0
			c3.102,0.039,6.383,0.541,9.232,1.664c2.747,1.269,5.111,3.012,7.092,5.229c1.981,2.218,3.564,4.716,4.754,7.488
			c1.19,2.772,1.783,5.587,1.783,8.438c0,2.853-0.423,5.76-1.268,8.717c-2.166,5.601-5.627,9.746-10.381,12.441
			c-0.528,0.316-1.281,0.674-2.258,1.069c-0.979,0.396-1.361,1.017-1.15,1.862c1.269,5.756,2.127,9.715,2.576,11.885
			c0.449,2.171,0.778,4.971,0.99,8.399c0.211,3.28-0.357,6.23-1.703,8.871c-1.349,2.649-3.156,4.799-5.43,6.459
			c-2.271,1.67-4.345,2.642-6.22,2.94c-1.876,0.289-3.157,0.431-3.845,0.431c-2.377,0-4.7-0.451-6.973-1.351
			c-2.8-1.051-5.15-2.66-7.052-4.83s-2.853-4.811-2.853-7.92c0-1.961,0.567-3.971,1.703-6.03c1.137-2.06,2.629-3.54,4.478-4.431
			c2.06-1.061,3.922-1.35,5.586-0.879c1.664,0.479,3.038,1.379,4.121,2.699c1.083,1.319,1.836,2.92,2.259,4.789
			c0.422,1.881,0.396,3.631-0.08,5.271c-0.477,1.64-1.438,3.029-2.893,4.16c-1.452,1.14-3.473,1.648-6.062,1.55
			c1.058,1.899,2.536,3.1,4.438,3.6c1.902,0.511,3.857,0.541,5.863,0.121c2.008-0.421,3.896-1.201,5.666-2.341
			c1.771-1.13,3.156-2.359,4.16-3.68c0.635-0.95,1.109-2.19,1.428-3.721c0.315-1.541,0.502-3.131,0.554-4.801
			c0.053-1.66,0-2.959-0.158-3.88c-0.159-0.931-0.423-2.37-0.793-4.319c-1.584-6.391-2.588-10.41-3.011-12.051
			c-0.211-0.521-0.779-0.695-1.703-0.51c-0.926,0.186-1.704,0.357-2.338,0.51c-4.543,0.59-8.348,0.32-11.411-0.787
			c-4.754-1.268-8.94-3.525-12.56-6.775c-3.619-3.248-6.524-7.184-8.718-11.807c-2.192-4.623-3.288-8.136-3.288-10.539
			c0-2.402,0-3.922,0-4.557c0-4.279,0.739-8.294,2.219-12.045c2.8-5.864,6.115-11.252,9.944-16.165
			C21.832,932.538,26.202,927.972,31.116,923.746z"/>
	</g>
</g>
</svg>
