<?xml version="1.0" encoding="utf-8"?>
<!-- Generator: Adobe Illustrator 16.0.4, SVG Export Plug-In . SVG Version: 6.00 Build 0)  -->
<!DOCTYPE svg PUBLIC "-//W3C//DTD SVG 1.1//EN" "http://www.w3.org/Graphics/SVG/1.1/DTD/svg11.dtd">
<svg version="1.1"
	 id="svg2" xmlns:dc="http://purl.org/dc/elements/1.1/" xmlns:cc="http://creativecommons.org/ns#" xmlns:rdf="http://www.w3.org/1999/02/22-rdf-syntax-ns#" xmlns:svg="http://www.w3.org/2000/svg" xmlns:sodipodi="http://sodipodi.sourceforge.net/DTD/sodipodi-0.dtd" xmlns:inkscape="http://www.inkscape.org/namespaces/inkscape" sodipodi:docname="Music-Fclef.png" inkscape:version="0.47 r22583"
	 xmlns="http://www.w3.org/2000/svg" xmlns:xlink="http://www.w3.org/1999/xlink" x="0px" y="0px" width="70px" height="200px"
	 viewBox="265 50 70 200" enable-background="new 265 50 70 200" xml:space="preserve">
<defs>
	
	
		<inkscape:perspective  inkscape:vp_z="1 : 0.5 : 1" inkscape:vp_y="0 : 1000 : 0" sodipodi:type="inkscape:persp3d" inkscape:vp_x="0 : 0.5 : 1" id="perspective10" inkscape:persp3d-origin="0.5 : 0.33333333 : 1">
		</inkscape:perspective>
</defs>
<sodipodi:namedview  inkscape:cy="194.89243" inkscape:cx="68.141319" inkscape:zoom="1" showgrid="false" guidetolerance="10" gridtolerance="10" objecttolerance="10" borderopacity="1" bordercolor="#666666" pagecolor="#ffffff" id="namedview4" inkscape:current-layer="svg2" inkscape:window-maximized="0" inkscape:window-y="52" inkscape:window-x="224" inkscape:snap-to-guides="true" inkscape:snap-grids="true" inkscape:window-height="703" inkscape:window-width="1142" inkscape:pageshadow="2" inkscape:pageopacity="0">
	<inkscape:grid  type="xygrid" enabled="true" visible="true" empspacing="5" id="grid3602" snapvisiblegridlinesonly="true">
		</inkscape:grid>
</sodipodi:namedview>
<g id="g3614" transform="matrix(3,0,0,3,15,-150)">
	<path id="path2820" sodipodi:nodetypes="cssssssssssc" d="M83.84,109.283c0-0.28,1.348-1.432,2.995-2.56
		c3.541-2.426,6.098-5.079,7.585-7.871c3.411-6.403,2.331-13.079-2.215-13.689c-2.514-0.337-5.697,1.497-5.697,3.283
		c0,0.663,0.17,0.716,2.013,0.634c2.255-0.101,3.781,2.094,2.56,3.684c-1.928,2.512-6.573,1.069-6.573-2.042
		c0-2.726,1.659-4.896,4.579-5.989c6.249-2.338,12.198,1.972,11.676,8.461c-0.426,5.318-5.057,10.286-14.046,15.067
		C84.582,109.397,83.84,109.661,83.84,109.283L83.84,109.283z"/>
	
		<path id="path3598" sodipodi:ry="6.875" sodipodi:rx="6.5625" sodipodi:cy="65.625" sodipodi:cx="128.4375" sodipodi:type="arc" d="
		M105.876,88.707c0,1.083-0.838,1.96-1.871,1.96s-1.871-0.878-1.871-1.96c0-1.083,0.838-1.96,1.871-1.96
		S105.876,87.625,105.876,88.707z"/>
	
		<path id="path3600" sodipodi:ry="6.875" sodipodi:rx="6.5625" sodipodi:cy="65.625" sodipodi:cx="128.4375" sodipodi:type="arc" d="
		M106.005,95.335c0,1.083-0.838,1.96-1.871,1.96c-1.034,0-1.871-0.877-1.871-1.96c0-1.083,0.838-1.96,1.871-1.96
		C105.167,93.375,106.005,94.252,106.005,95.335z"/>
</g>
</svg>
